<?xml version="1.0" standalone="no"?><!DOCTYPE svg PUBLIC "-//W3C//DTD SVG 1.1//EN" "http://www.w3.org/Graphics/SVG/1.1/DTD/svg11.dtd"><svg class="icon" width="200px" height="71.41px" viewBox="0 0 2868 1024" version="1.1" xmlns="http://www.w3.org/2000/svg"><path d="M2212.818944 198.991872c0 31.997952 23.40864 57.93792 52.310016 57.93792s52.314112-25.939968 52.314112-57.93792c0-31.993856-23.412736-57.929728-52.314112-57.929728s-52.310016 25.935872-52.310016 57.929728zM2395.357184 617.689088c-10.887168-8.99072-21.77024 9.3184-21.77024 9.3184-19.300352 42.438656-65.961984 85.270528-65.961984 85.270528-65.941504 30.728192 16.510976-133.926912 16.510976-133.926912 43.851776-94.257152 71.20896-221.966336 71.20896-221.966336 16.482304-109.428736-76.808192-73.183232-76.808192-73.183232-74.031104 18.28864-148.078592 158.445568-148.078592 158.445568-24.559616 66.973696 63.164416-45.563904 63.164416-48.676864 46.665728-63.852544 51.933184-15.200256 51.933184-15.200256 0 30.724096-43.86816 146.030592-65.937408 191.598592-24.90368 47.632384-40.763392 100.462592-46.661632 155.328512-2.797568 88.39168 87.71584 66.977792 87.71584 66.977792 60.33408-8.966144 134.393856-146.014208 134.393856-146.014208 11.194368-22.126592 0.290816-27.971584 0.290816-27.971584z" fill="#FB5000" /><path d="M2707.914752 529.362944l116.015104-251.072512-107.6224-3.248128L2657.214464 424.7552l-63.148032-152.94464h-183.468032l158.1056 38.227968s10.543104 22.372352-120.057856 15.876096c0 0 75.829248 25.247744 134.905856 34.992128 0 0 25.346048 25.616384-118.181888 19.116032 0 0-10.50624 12.623872 132.759552 32.104448 0 0 31.588352 6.496256 6.479872 15.880192 0 0-97.112064 12.627968-107.64288 9.392128 0 0 67.457024 19.10784 128.688128 28.495872 0 0 46.415872 9.74848 4.304896 22.368256l-107.626496 6.488064 132.75136 25.608192s21.27872 15.880192-6.209536 22.376448c0 0-116.031488 12.623872-128.704512 9.383936 0 0 73.904128 22.360064 109.776896 25.247744 0 0 44.273664 9.752576-27.488256 19.111936l-109.81376 15.888384 122.232832 15.839232s29.421568 15.872-63.168512 25.23136l-88.49408 15.904768 124.387328 9.744384s12.673024 19.120128-12.660736 25.616384l-132.77184 15.872s103.333888 15.888384 116.0192 15.888384c0 0 21.27872 9.367552-54.788096 22.360064l-88.481792 19.111936 168.628224 5.070848 73.916416-162.000896 75.849728 162.000896h103.317504l-128.7168-253.6448z" fill="#4750C5" /><path d="M2281.168896 946.016256a23.543808 23.543808 0 0 0-2.285568 11.767808 31.29344 31.29344 0 0 0-2.297856-11.767808c-2.306048-4.79232-8.912896-37.687296-24.6784-98.910208h-24.711168c-11.177984 54.272-20.103168 84.738048-22.6304 96.514048-1.302528 4.542464-2.019328 9.35936-2.301952 14.176256h-2.306048a96.70656 96.70656 0 0 1-2.277376-11.776c0-9.351168-6.610944-42.504192-17.825792-96.514048h-22.6304l29.253632 127.26272h24.707072c15.781888-63.63136 24.666112-96.518144 24.666112-98.926592 1.794048-2.670592 2.551808-6.144 2.306048-9.35936 1.511424 3.72736 2.281472 7.737344 2.281472 11.759616 0 2.400256 8.912896 35.270656 24.694784 98.934784h25.198592l31.281152-134.22592h-22.6304c-10.9568 65.777664-17.813504 98.926592-17.813504 101.064704z m-295.923712-77.791232h42.491904v113.369088h22.392832v-113.369088h42.745856V849.5104h-107.6224l-0.008192 18.714624zM1892.069376 298.76224c-14.9504-19.61984-33.026048-34.709504-53.075968-43.384832-63.152128-19.996672-116.506624 39.981056-116.506624 39.981056v-29.806592h-101.011456l-2.592768 532.414464h101.306368s2.572288-209.416192 0-279.207936c-5.177344-126.410752 0-126.410752 22.663168-136.589312 70.873088-23.400448 68.296704 49.799168 68.296704 49.799168v365.99808h98.705408V451.964928c0-59.98592 30.408704-69.79584 30.408704-69.79584 58.24512-23.400448 63.123456 49.799168 63.123456 49.799168v365.99808h101.289984V388.583424c0.3072-32.825344-9.756672-64.14336-27.848704-86.421504-86.073344-109.801472-184.758272-3.39968-184.758272-3.39968zM1679.941632 849.5104c-40.464384 0-60.571648 23.801856-62.865408 68.448256 2.29376 42.504192 22.654976 66.031616 62.865408 68.431872 40.431616-2.400256 60.526592-25.935872 62.824448-68.431872-4.32128-42.512384-24.416256-66.048-62.824448-68.448256z m-2.056192 117.907456c-24.928256-2.41664-36.122624-18.71872-38.158336-49.455104 2.27328-30.744576 15.765504-47.054848 40.448-49.455104 24.690688 2.400256 35.868672 18.976768 38.17472 49.455104-2.285568 32.878592-15.781888 47.038464-40.464384 49.455104z m145.805312 14.168064h22.388736v-56.680448h58.273792v-18.710528H1846.079488v-37.96992h67.44064v-18.694144h-89.82528l-0.004096 132.05504zM2436.104192 849.5104l-49.360896 134.209536h22.65088l11.177984-32.878592h53.960704l11.190272 32.878592h24.686592L2461.044736 849.5104h-24.940544z m-11.44832 77.795328c11.173888-32.878592 18.06336-49.463296 18.06336-49.463296 1.282048-1.318912 2.048-2.92864 2.297856-4.800512 1.273856-1.327104 2.043904-2.953216 2.285568-4.816896v0.536576c0.270336 4.28032 2.297856 6.688768 2.297856 8.822784 0 0 6.602752 16.56832 18.06336 49.446912h-43.008v0.274432z m-2424.655872-129.339392h106.16832V32.768h-106.16832c2.568192 0 0 765.198336 0 765.198336z m2691.571712 91.648c-2.301952-23.801856-18.071552-37.70368-47.079424-37.70368h-58.273792v132.079616h22.654976v-54.272h24.690688l35.872768 54.272h26.968064l-38.432768-56.68864c22.376448-2.39616 33.599488-14.155776 33.599488-37.687296z m-84.983808 21.11488v-42.504192h31.289344c18.051072 0 26.963968 6.967296 26.963968 21.127168s-8.92928 21.13536-26.963968 21.13536h-31.289344v0.241664zM650.182656 268.951552H594.51392v106.418176h50.515968v425.623552h98.709504V378.773504h106.176512V268.951552h-103.58784C733.71648 135.76192 807.170048 145.948672 807.170048 145.948672h47.919104v-109.809664H794.23488c-177.053696 6.443008-144.052224 232.812544-144.052224 232.812544z m-169.566208 13.221888c-96.120832-66.41664-187.080704 20.000768-187.080704 20.000768v-36.614144h-103.870464V797.98272h101.298176l2.592768-329.4208c5.18144-79.986688 70.856704-89.788416 70.856704-89.788416 75.75552-16.601088 90.968064 79.99488 90.968064 79.99488v342.60992h98.709504v-339.23072C551.497728 318.763008 480.616448 282.17344 480.616448 282.17344z m1100.402688-13.221888c-103.56736-63.021056-161.83296 49.803264-161.83296 49.803264V265.555968h-96.141312v519.204864h103.596032V491.954176c22.67136-169.787392 154.37824-96.591872 154.37824-96.591872V268.951552z m-73.601024 641.777664c-6.873088-2.400256-13.492224-4.808704-22.646784-6.950912-20.103168-2.400256-29.26592-9.351168-26.955776-18.976768 2.281472-9.367552 8.900608-16.576512 24.686592-16.576512 18.06336 0 26.963968 6.959104 29.24544 23.785472l22.65088-4.816896c-4.591616-25.952256-22.65088-37.695488-51.65056-37.695488-26.97216 0-42.491904 11.743232-44.802048 35.270656 0 19.009536 11.206656 32.878592 38.191104 37.720064 6.610944 0 11.18208 2.392064 17.793024 4.816896 15.781888 4.816896 24.690688 11.751424 22.65088 21.118976 0 14.15168-8.916992 21.118976-24.690688 21.118976-18.067456 0-31.29344-9.35936-33.591296-30.736384l-22.634496 4.808704c4.591616 28.34432 24.686592 42.520576 51.658752 40.103936 31.29344 0 47.06304-11.751424 49.360896-37.695488-0.008192-16.306176-9.166848-28.065792-29.26592-35.295232zM1064.812544 255.770624c-108.744704 0-197.423104 126.398464-197.423104 282.615808 0 156.184576 88.653824 282.615808 197.423104 282.615808 108.756992 0 197.4272-126.431232 197.4272-282.615808 0-156.217344-88.375296-282.615808-197.4272-282.615808z m0 449.011712c-58.257408 0-106.16832-76.599296-106.16832-173.19936 0-96.595968 48.201728-173.191168 106.16832-173.191168 58.257408 0 106.180608 76.5952 106.180608 173.191168 0 96.600064-47.9232 173.19936-106.180608 173.19936z m1727.75424 260.21888v-40.095744h69.730304v-16.576512h-69.730304v-37.687296h74.051584v-18.726912H2772.471808v131.80928h96.436224v-18.71872h-76.341248v-0.004096z"  /></svg>