<?xml version="1.0" standalone="no"?><!DOCTYPE svg PUBLIC "-//W3C//DTD SVG 1.1//EN" "http://www.w3.org/Graphics/SVG/1.1/DTD/svg11.dtd"><svg class="icon" width="200px" height="200.00px" viewBox="0 0 1024 1024" version="1.1" xmlns="http://www.w3.org/2000/svg"><path d="M978.993973 335.06159V284.185212A153.732961 153.732961 0 0 0 825.461708 130.452251h-280.422167l-1.254348-2.508697a96.133275 96.133275 0 0 0-86.800921-53.987162H164.068793A153.732961 153.732961 0 0 0 10.536528 227.639179v585.981479a153.732961 153.732961 0 0 0 153.532265 153.582439h696.414327a153.732961 153.732961 0 0 0 153.532265-153.582439V409.519722a96.635014 96.635014 0 0 0-35.021412-74.458132zM825.461708 210.73056a73.555 73.555 0 0 1 73.454652 73.454652v28.4988h-253.729629a16.657749 16.657749 0 0 1-15.052183-9.282179L584.526434 210.73056z m108.476065 602.890098a73.555 73.555 0 0 1-73.454653 73.504826H164.068793a73.555 73.555 0 0 1-73.454652-73.504826V227.639179A73.555 73.555 0 0 1 164.068793 154.184526h292.915479a16.507227 16.507227 0 0 1 15.052183 9.332354l86.449703 175.257582a96.183448 96.183448 0 0 0 86.800921 54.037337h272.043118a16.707923 16.707923 0 0 1 16.707923 16.707923z" fill="#999999" /></svg>