<?xml version="1.0" standalone="no"?><!DOCTYPE svg PUBLIC "-//W3C//DTD SVG 1.1//EN" "http://www.w3.org/Graphics/SVG/1.1/DTD/svg11.dtd"><svg class="icon" width="200px" height="196.17px" viewBox="0 0 1044 1024" version="1.1" xmlns="http://www.w3.org/2000/svg"><path d="M968.78592 633.1392a35.84 35.84 0 1 1 0-71.68 35.84 35.84 0 0 1 0 71.68z m0-62.44352a26.70592 26.70592 0 1 0 26.68544 26.70592 26.70592 26.70592 0 0 0-26.68544-26.89024v0.2048z" fill="#BC3030" /><path d="M974.35648 613.66272l-6.22592-11.8784h-3.82976v11.8784h-8.15104v-33.9968h12.34944a10.79296 10.79296 0 0 1 13.16864 10.58816 9.97376 9.97376 0 0 1-5.75488 9.78944l7.49568 13.35296h-9.15456l0.1024 0.26624z m-10.15808-18.28864h3.66592a4.85376 4.85376 0 0 0 5.57056-4.75136c0-3.19488-2.00704-4.1984-5.8368-4.1984h-3.29728v9.13408l-0.1024-0.18432zM646.8608 330.24l39.58784-63.36512H421.2736s-71.31136 2.84672-71.31136 75.79648v117.57568s-6.7584 77.53728 67.29728 77.53728h225.01376a40.69376 40.69376 0 0 0 42.96704-44.15488V405.9136s3.93216-32.80896-38.5024-32.80896h-151.49056v57.1392h126.1568v45.2608h-190.70976a20.39808 20.39808 0 0 1-16.9984-19.84512v-100.5568s-5.57056-24.8832 18.18624-24.8832h215.51104M208.54784 630.21056l19.5584-31.3344H97.28a36.57728 36.57728 0 0 0-35.20512 37.4784v58.14272s-3.3792 38.4 33.64864 38.4h110.53056a20.11136 20.11136 0 0 0 21.21728-21.85216v-43.33568s1.92512-16.1792-19.00544-16.1792H133.48864v28.24192h62.81216v22.40512H101.76512a10.05568 10.05568 0 0 1-8.41728-9.78944v-49.82784a9.13408 9.13408 0 0 1 9.13408-12.34944h106.33216m194.6624 3.56352c0-34.65216-29.0816-35.36896-29.0816-35.36896h-133.8368v134.12352h133.12a35.10272 35.10272 0 0 0 32.91136-35.75808c0-27.2384-17.28512-32.4608-17.28512-32.4608 9.56416-7.12704 14.90944-18.61632 14.17216-30.5152z m-130.82624 68.03456v-21.58592h94.72c5.2224 0.83968 8.8064 5.7344 8.02816 10.97728a8.6016 8.6016 0 0 1-7.31136 10.60864h-95.4368z m0-50.46272v-21.2992h94.72c5.2224 0.8192 8.8064 5.7344 8.02816 10.9568a8.6016 8.6016 0 0 1-7.31136 10.3424h-95.4368z m242.36032-52.38784h-34.46784l-75.9808 133.57056h36.0448l16.1792-30.72h82.26816l16.1792 30.98624h38.6048l-78.82752-133.8368z m-39.66976 70.49216l22.67136-38.42048v-0.8192l19.84512 39.13728h-42.5984l0.08192 0.1024z m251.78112-39.424l19.02592-30.5152h-126.44352a39.03488 39.03488 0 0 0-35.0208 41.04192 36.57728 36.57728 0 0 0 35.75808 38.76864h85.93408a9.78944 9.78944 0 0 1 9.15456 10.9568 10.24 10.24 0 0 1-8.6016 11.53024h-118.86592l15.4624 31.08864h113.90976s29.26592 0 29.26592-40.77568-32.4608-39.3216-32.4608-39.3216h-90.78784s-7.04512 0-7.04512-11.8784 7.49568-10.79296 7.49568-10.79296 103.424 0.08192 103.2192-0.1024z m192.83968-31.4368h-116.49024a57.05728 57.05728 0 0 0-26.23488 6.12352c-10.24 5.30432-21.77024 14.336-21.77024 27.97568v54.39488a50.176 50.176 0 0 0 11.53024 32.64512c6.49216 8.192 16.34304 13.0048 26.78784 13.06624h106.496l20.39808-31.35488H794.624a7.94624 7.94624 0 0 1-7.86432-8.68352v-11.61216h115.2l16.65024-29.9008h-132.11648v-13.43488a8.31488 8.31488 0 0 1 9.13408-8.3968c9.60512 0 105.59488 0.98304 106.06592 1.35168l18.28864-32.17408z" fill="#BC3030" /></svg>